PathFileType	4	(X/Y/Z)	./resultDataOpenSim/trcMotMarkerGrf/sub06/qtm-03-02.trc
DataRate	CameraRate	NumFrames	NumMarkers	Units	OrigDataRate	OrigDataStartFrame	OrigNumFrames
250.000000	250.000000	14	24	m	250.000000	314	502
Frame#	Time	L.Toe.Tip			R.Toe.Tip			L.Ankle.Lat			R.Ankle.Lat			L.Ankle.Med			R.Ankle.Med			L.Heel			R.Heel			L.Knee.Lat			R.Knee.Lat			L.Knee.Med			R.Knee.Med			L.Thigh.Upper			R.Thigh.Upper			L.ASIS			R.ASIS			V.Sacral			L.Acromium			R.Acromium			C7			L.Elbow			R.Elbow			L.Wrist.Lat			R.Wrist.Lat
		X1	Y1	Z1	X2	Y2	Z2	X3	Y3	Z3	X4	Y4	Z4	X5	Y5	Z5	X6	Y6	Z6	X7	Y7	Z7	X8	Y8	Z8	X9	Y9	Z9	X10	Y10	Z10	X11	Y11	Z11	X12	Y12	Z12	X13	Y13	Z13	X14	Y14	Z14	X15	Y15	Z15	X16	Y16	Z16	X17	Y17	Z17	X18	Y18	Z18	X19	Y19	Z19	X20	Y20	Z20	X21	Y21	Z21	X22	Y22	Z22	X23	Y23	Z23	X24	Y24	Z24

314	1.252	0.35120844	0.11443899	-0.045056054	0.93737319	0.036043986	0.11407017	0.37310148	0.23840837	-0.088753364	0.80049538	0.058939815	0.1369574	0.39013078	0.24866731	-0.0069176465	0.82102866	0.082938952	0.051166154	0.33280896	0.30513377	-0.048719131	0.74615951	0.038580981	0.077714687	0.72651485	0.36808775	-0.10281853	0.86915444	0.44116236	0.17571419	0.72678617	0.35887149	0.017801777	0.83475306	0.43171351	0.053164623	0.67175543	0.76096773	-0.10428728	0.72533045	0.78965871	0.23606834	0.75603425	0.8113435	-0.077695541	0.80179423	0.83558128	0.16454939	0.59713097	0.90403495	0.077122166	0.73052176	1.3134561	-0.12056931	0.7413693	1.2828367	0.24140265	0.659102	1.3420943	0.063756807	0.75211634	0.98763198	-0.18284894	0.64474167	0.98141979	0.29491877	0.95513024	0.85152372	-0.13909513	0.7678675	0.77271098	0.33281824
315	1.256	0.3640272	0.1180494	-0.044910518	0.93723696	0.036072383	0.11421165	0.3856473	0.24199828	-0.088725746	0.80032264	0.05893539	0.13713126	0.40254405	0.25242614	-0.0070806529	0.82090977	0.08315064	0.051430874	0.34501428	0.30870836	-0.049101947	0.74605921	0.038684079	0.077863515	0.73889322	0.37116628	-0.10222567	0.87021273	0.44121776	0.17628845	0.73968062	0.36174326	0.018372089	0.83623702	0.43203211	0.053564671	0.67815849	0.76373983	-0.10421912	0.73022068	0.79136602	0.2365307	0.76230304	0.81404782	-0.077015367	0.80709719	0.83758562	0.16546905	0.60290827	0.90622438	0.077225816	0.73596904	1.3159136	-0.12036036	0.74745472	1.2855549	0.24148254	0.66510029	1.3443152	0.063876972	0.75537822	0.99013259	-0.18224842	0.65287826	0.98332199	0.29619289	0.95666167	0.85128022	-0.1399842	0.78036764	0.77679856	0.33235905
316	1.26	0.37694161	0.12143228	-0.044875317	0.9371129	0.036100558	0.1143264	0.39821571	0.24540054	-0.088735446	0.80016378	0.058947577	0.1372938	0.41496451	0.25597093	-0.007253287	0.82077978	0.083373427	0.05166009	0.35716855	0.3120299	-0.049437692	0.74597073	0.038803476	0.077853452	0.75121235	0.37434172	-0.10158093	0.87110313	0.4412972	0.17666097	0.7520683	0.36477076	0.019068219	0.83742748	0.43231036	0.0539638	0.68458202	0.76648393	-0.10406149	0.73529169	0.79309322	0.23694561	0.7685163	0.81672957	-0.076395775	0.8124006	0.8396305	0.16632619	0.6086142	0.90838145	0.077319069	0.74141717	1.3183543	-0.12014525	0.75352936	1.2882701	0.24155869	0.67094591	1.3466385	0.064093789	0.75856845	0.99264346	-0.18166117	0.66097382	0.98525118	0.2974625	0.9580924	0.85109746	-0.14092217	0.7928109	0.78103026	0.33187211
317	1.264	0.38996855	0.12458371	-0.044933732	0.93700458	0.036126036	0.11441672	0.41079388	0.24861067	-0.088800402	0.80002241	0.05897545	0.13744508	0.42742535	0.25928924	-0.007440224	0.82064993	0.083604366	0.051857479	0.36927865	0.31509571	-0.049740616	0.74588998	0.038943112	0.077720392	0.76348784	0.37761648	-0.10092284	0.87189937	0.44140736	0.17690213	0.76413882	0.36790762	0.019789749	0.83839358	0.43255248	0.05432415	0.69107505	0.76919277	-0.10394898	0.74035217	0.79481323	0.23728144	0.77457819	0.81931194	-0.075991204	0.81771558	0.84170872	0.16712748	0.61420673	0.9105117	0.077416143	0.74687065	1.3207717	-0.11992598	0.75958816	1.2909731	0.24163127	0.67670131	1.3490023	0.064361422	0.76169737	0.99516773	-0.18106997	0.66902242	0.98719915	0.29872603	0.95943447	0.85096657	-0.14190033	0.80518905	0.78539919	0.33135247
318	1.268	0.40313042	0.12749697	-0.045075433	0.93691216	0.036148615	0.11448403	0.42337631	0.25162447	-0.088906914	0.79988363	0.059024918	0.13759322	0.43997065	0.26236478	-0.0076484686	0.82052968	0.083836813	0.052034339	0.38134134	0.31790188	-0.050014272	0.74581117	0.039100471	0.077563882	0.77570932	0.38099075	-0.10026514	0.8726851	0.44156004	0.17711889	0.77597792	0.37113302	0.020520708	0.83920721	0.43276503	0.054618405	0.69766637	0.77187386	-0.10392365	0.74521998	0.7965112	0.23754932	0.78049045	0.82181492	-0.075787766	0.82303757	0.84380873	0.16787598	0.61968127	0.9126214	0.077521664	0.7523334	1.3231623	-0.11970336	0.76561977	1.2936591	0.24169493	0.68241616	1.3513534	0.064640933	0.76478299	0.99769565	-0.18046614	0.67701734	0.98916029	0.29998101	0.9607047	0.85087559	-0.142911	0.81749252	0.78989089	0.33079617
319	1.272	0.41643642	0.13016621	-0.045299566	0.93683257	0.036170692	0.11453005	0.43596442	0.25443738	-0.089032878	0.79971898	0.059106895	0.13775032	0.45259338	0.26518848	-0.0078584274	0.82042281	0.084062123	0.052199958	0.39335022	0.32044093	-0.050256853	0.74573194	0.039266668	0.077485724	0.78785828	0.38445802	-0.099618422	0.87347599	0.44175141	0.17734302	0.78766761	0.37444388	0.021278168	0.83992229	0.43295908	0.054835174	0.70434342	0.77454097	-0.10395288	0.74990938	0.79818808	0.23775947	0.78637105	0.82433127	-0.07562431	0.82836024	0.8459141	0.1685722	0.62506977	0.91471733	0.07762866	0.75780374	1.3255207	-0.11947865	0.77161977	1.2963232	0.24174742	0.68811072	1.3536663	0.064914091	0.76783936	1.0002066	-0.17987203	0.68496194	0.99112922	0.30122514	0.9619168	0.85081457	-0.14395464	0.82970022	0.79447108	0.33019292
320	1.276	0.42988234	0.13258532	-0.045607743	0.93676188	0.036195187	0.11455899	0.44855923	0.25704256	-0.089165953	0.79952178	0.059224408	0.1379149	0.46517561	0.26777688	-0.008016116	0.82033067	0.084271384	0.052351642	0.40530213	0.32270358	-0.050468442	0.74565682	0.039431884	0.077506746	0.79992488	0.38800711	-0.098997086	0.87426501	0.44195792	0.17754435	0.79931011	0.37784948	0.022066906	0.84065568	0.43313959	0.054944811	0.711071	0.77720454	-0.1040093	0.75462938	0.79985296	0.23790985	0.7924045	0.82695782	-0.075310832	0.83368691	0.8480065	0.16921814	0.63041965	0.9168033	0.077728072	0.76327378	1.3278393	-0.11925667	0.77759277	1.2989568	0.24179312	0.69379227	1.3559291	0.065173661	0.77086808	1.0026845	-0.1793172	0.69287095	0.99309741	0.30245725	0.96307908	0.85077458	-0.14503915	0.8417963	0.79910567	0.32953751
321	1.28	0.44346516	0.13474588	-0.045998404	0.93669799	0.036222624	0.11457685	0.46116025	0.25942229	-0.089297814	0.79933541	0.059359628	0.13806111	0.4775908	0.27015303	-0.0080891112	0.82025916	0.084459441	0.052479118	0.41719797	0.32467994	-0.050655884	0.7455923	0.039592485	0.077579893	0.81191043	0.39162336	-0.098396917	0.87505614	0.44215503	0.17768767	0.81096545	0.38136298	0.022873724	0.84153027	0.43330868	0.0549217	0.71782572	0.77986953	-0.10409544	0.75960166	0.80150299	0.23798358	0.79871194	0.82973191	-0.074755498	0.83902649	0.85007187	0.16982033	0.63576516	0.91887854	0.07781993	0.76873825	1.3301098	-0.11904168	0.78354246	1.3015508	0.24183805	0.69946279	1.3581367	0.065418907	0.77385154	1.0051285	-0.17882051	0.70075574	0.99505417	0.30367523	0.9641965	0.85074955	-0.14616846	0.85379692	0.8037933	0.32884944
322	1.284	0.45719167	0.13663947	-0.046463247	0.9366418	0.036250169	0.11458956	0.47377056	0.26154294	-0.089425167	0.79921581	0.059481923	0.13816071	0.48985595	0.27231295	-0.0081095601	0.82021891	0.084626923	0.052573836	0.42904626	0.32636076	-0.050836384	0.74554076	0.039753095	0.077656521	0.82382039	0.395288	-0.097780895	0.87584609	0.44233473	0.17775913	0.82259006	0.38498699	0.023688475	0.84248553	0.43348437	0.054803636	0.72460509	0.78254072	-0.10420913	0.76499014	0.8031247	0.2379293	0.80520976	0.832589	-0.074052766	0.84438305	0.85210168	0.17038758	0.64111519	0.92093654	0.077910901	0.77419918	1.3323235	-0.1188324	0.7894678	1.3040985	0.24188561	0.70511947	1.3602907	0.065655037	0.77676451	1.0075381	-0.17838668	0.70861926	0.99699189	0.30487546	0.9652716	0.85074087	-0.14733669	0.86573585	0.80855758	0.3281607
323	1.288	0.47107934	0.13826483	-0.046985511	0.93659545	0.036273783	0.11460169	0.48639575	0.26336402	-0.089548813	0.79917255	0.059571338	0.13821076	0.50208234	0.27423484	-0.0081301433	0.82021589	0.084779707	0.052634996	0.44086589	0.32774101	-0.051030621	0.74550282	0.039920627	0.077711868	0.83565582	0.39898127	-0.097110464	0.87662294	0.44250047	0.17776873	0.83400551	0.38871388	0.024540885	0.84326211	0.43369839	0.054677483	0.73141597	0.78522153	-0.10433719	0.77087317	0.80470805	0.2376873	0.81168325	0.83540944	-0.073395413	0.84975209	0.85408601	0.17092578	0.64647269	0.92296176	0.077999224	0.77966016	1.3344746	-0.11862564	0.79536811	1.3065937	0.24193851	0.71075868	1.3623967	0.065886254	0.77959949	1.0098984	-0.17800128	0.71646809	0.9989077	0.30605698	0.96630154	0.8507558	-0.14853421	0.87762529	0.8134102	0.3274857
324	1.292	0.4851515	0.13962897	-0.047548585	0.93656008	0.036291625	0.11461578	0.4990409	0.26486063	-0.089664148	0.79917312	0.059631768	0.13822808	0.51433559	0.2759045	-0.0081694807	0.82024245	0.084929357	0.052674406	0.4526649	0.32881573	-0.051228622	0.74548447	0.040096133	0.077732456	0.84741067	0.40268915	-0.096381468	0.87738028	0.44265515	0.17773912	0.84491621	0.39254206	0.025532195	0.84363437	0.43397379	0.054587759	0.73826958	0.78790617	-0.10447641	0.77705007	0.80622923	0.23731341	0.81802054	0.83813073	-0.072859407	0.85512466	0.85600939	0.17143769	0.65185917	0.92493112	0.078070084	0.78512327	1.3365663	-0.11841904	0.80124558	1.3090313	0.24200046	0.71638016	1.3644547	0.066109949	0.78237182	1.0121962	-0.17764735	0.72430881	1.0007971	0.30722433	0.96727705	0.85079565	-0.14975506	0.88945267	0.81833718	0.32681911
325	1.296	0.49942458	0.14074027	-0.048142564	0.93653538	0.03630548	0.11463296	0.51171173	0.26604922	-0.089767736	0.7991826	0.059687486	0.13823082	0.52661513	0.27731587	-0.0082179912	0.82028105	0.085091685	0.052712454	0.46441616	0.32957111	-0.051374	0.74549819	0.040273422	0.077704917	0.85907661	0.40640725	-0.09561091	0.87812059	0.44280129	0.17769056	0.85510619	0.396462	0.026781472	0.84361267	0.43431448	0.054498618	0.74517778	0.79058093	-0.10462724	0.78284695	0.80760151	0.23708636	0.82426884	0.84079357	-0.072317411	0.86049277	0.85785635	0.17192634	0.65730503	0.92682998	0.078109211	0.79059258	1.3386056	-0.11820966	0.80710048	1.3114091	0.24207135	0.72198651	1.3664546	0.066323504	0.78510366	1.0144396	-0.17734302	0.73213501	1.0026478	0.30838218	0.96819019	0.85084463	-0.15099919	0.90120766	0.82331085	0.32615162
326	1.3	0.51390096	0.14160656	-0.048754454	0.93651971	0.036317912	0.11465385	0.5244064	0.26698065	-0.089865863	0.79918063	0.059766243	0.13823137	0.53890057	0.27846399	-0.0082618557	0.82031967	0.085278993	0.052763125	0.47608595	0.32999057	-0.051431929	0.74554785	0.040449387	0.077627889	0.87064617	0.41013792	-0.094811236	0.87884872	0.44294439	0.17763451	0.86476394	0.40041496	0.028277847	0.84347385	0.4346955	0.054377171	0.75214233	0.79323303	-0.10477938	0.78746012	0.80870605	0.23733594	0.83043799	0.84347745	-0.071572883	0.86585192	0.85961893	0.17239667	0.66282064	0.92866168	0.078112406	0.79607183	1.3405922	-0.11799694	0.8129287	1.3137256	0.24214499	0.72758131	1.3683847	0.066530992	0.78780583	1.0166425	-0.17714945	0.73993517	1.0044415	0.3095248	0.96905073	0.85087885	-0.15226733	0.91289875	0.82830831	0.32547957
327	1.304	0.52857399	0.14223614	-0.049361538	0.93650994	0.036329114	0.11467871	0.53711304	0.26769325	-0.089966226	0.79916105	0.05988004	0.13823375	0.55117706	0.27934601	-0.0082895171	0.82036231	0.085492053	0.052825056	0.48768142	0.33006692	-0.051448238	0.74560647	0.040636976	0.077536792	0.88211363	0.41387971	-0.093991195	0.87956352	0.44308929	0.17757698	0.87442161	0.40430908	0.029835853	0.84355713	0.43507025	0.054256525	0.75915319	0.79585339	-0.10492554	0.79092143	0.80955932	0.23801769	0.83639959	0.84619745	-0.070588359	0.87119976	0.86129618	0.17285542	0.66838996	0.93043133	0.078085255	0.80155775	1.3425172	-0.11778383	0.81872974	1.3159803	0.24221895	0.73316657	1.3702419	0.066739369	0.79048067	1.018803	-0.17710368	0.74769921	1.0061601	0.31063314	0.96988735	0.85088533	-0.15355281	0.92453517	0.83332668	0.32480641
